<?xml version="1.0" standalone="no"?>
<!DOCTYPE svg PUBLIC "-//W3C//DTD SVG 20010904//EN"
 "http://www.w3.org/TR/2001/REC-SVG-20010904/DTD/svg10.dtd">
<svg version="1.0" xmlns="http://www.w3.org/2000/svg"
 width="48.000000pt" height="48.000000pt" viewBox="0 0 48.000000 48.000000"
 preserveAspectRatio="xMidYMid meet">
<metadata>
Created by potrace 1.11, written by Peter Selinger 2001-2013
</metadata>
<g transform="translate(0.000000,48.000000) scale(0.100000,-0.100000)"
fill="#000000" stroke="none">
<path d="M155 431 c-98 -45 -150 -163 -114 -258 8 -22 7 -30 -5 -39 -18 -13
-21 -50 -5 -60 8 -5 7 -9 -1 -14 -20 -12 -3 -40 24 -40 14 0 29 7 34 16 8 14
10 14 21 0 16 -19 52 -21 69 -4 9 9 12 9 12 -1 0 -9 9 -12 27 -8 18 3 31 0 38
-10 15 -20 49 -9 63 20 l11 22 0 -22 c1 -31 14 -35 50 -17 27 13 31 21 33 57
l1 42 6 -45 c5 -35 10 -46 26 -48 18 -3 20 2 17 58 -3 40 -9 63 -17 67 -10 3
-11 11 -4 30 14 39 10 104 -10 148 -49 106 -173 154 -276 106z m95 -84 c1 -20
2 -21 14 -4 17 22 26 22 26 -3 0 -10 9 -24 20 -30 21 -11 28 -54 10 -65 -6 -4
-5 -13 2 -25 21 -32 -4 -70 -46 -70 -19 0 -36 -6 -39 -12 -3 -9 -10 -7 -21 7
-14 18 -15 18 -16 3 0 -24 -16 -23 -23 2 -3 11 -12 20 -21 20 -9 0 -16 7 -16
15 0 8 7 15 15 15 8 0 19 17 25 43 6 23 13 48 15 55 3 7 -2 15 -10 18 -8 4
-15 13 -15 21 0 11 7 13 26 9 20 -5 27 -3 31 13 7 26 23 17 23 -12z"/>
</g>
</svg>
